<svg width="69" height="69" viewBox="0 0 69 69" fill="none" xmlns="http://www.w3.org/2000/svg">
<path fill-rule="evenodd" clip-rule="evenodd" d="M28.4671 3.618C28.1991 6.747 27.6561 7.435 24.4421 8.711C20.9471 10.098 20.5411 10.054 17.5941 7.955L14.4621 5.725L10.4221 9.765L6.38207 13.805L8.63207 16.964C10.7231 19.901 10.7831 20.383 9.48407 23.812C8.36707 26.757 7.48907 27.568 5.12107 27.838C0.744072 28.338 -0.223928 29.62 0.040072 34.572C0.315072 39.74 1.07507 40.727 5.12107 41.173C7.49407 41.435 8.36507 42.237 9.48407 45.188C10.7831 48.617 10.7231 49.099 8.63207 52.036L6.38207 55.195L10.4921 59.306L14.6031 63.416L17.6981 61.128C20.6131 58.972 21.0051 58.925 24.4751 60.304C27.4881 61.501 28.2481 62.379 28.6571 65.134C29.1371 68.368 29.3461 68.512 33.9941 68.808C39.9711 69.189 42.6481 67.579 46.2491 61.434C48.6251 57.379 49.2341 56.928 51.5451 57.506C52.9821 57.865 54.5171 58.798 54.9571 59.58C56.1191 61.644 59.4411 61.319 60.8891 59C61.5761 57.9 62.6721 57 63.3251 57C63.9781 57 65.4871 55.762 66.6801 54.25C69.5221 50.645 68.8841 45.522 64.8131 39.264C61.4171 34.044 61.7561 32.035 66.4151 29.766C68.9781 28.517 69.1361 28.074 68.8311 22.965C68.6511 19.959 67.8801 16.528 67.1161 15.339C65.2501 12.435 59.8201 10.785 53.4211 11.177L48.1571 11.5L48.4501 7.748C48.7091 4.449 48.4071 3.863 45.9501 2.891C44.4141 2.282 42.3761 1.383 41.4211 0.892C40.4661 0.402 37.2301 0 34.2311 0H28.7781L28.4671 3.618ZM35.4511 9.208L35.1571 16.417L31.2211 17.231C22.8551 18.963 17.6571 25.753 17.6571 34.951C17.6571 43.615 22.6841 49.971 31.2421 52.126L35.6571 53.237V60.119C35.6571 66.792 35.5811 67 33.1571 67C30.9951 67 30.6571 66.553 30.6571 63.698C30.6571 60.676 30.2251 60.215 25.5571 58.242L20.4571 56.088L17.5651 58.226L14.6731 60.364L12.1651 58.008C9.13607 55.162 9.06507 54.26 11.6521 51.506C13.6461 49.383 13.6461 49.38 11.4741 44.241C9.60007 39.805 8.88107 39.059 6.23007 38.8C3.38607 38.522 3.13407 38.184 2.85007 34.25C2.54407 30.032 2.56807 30 5.90107 30C9.00007 30 9.43007 29.598 11.4531 24.809C13.6461 19.619 13.6461 19.617 11.6521 17.494C9.13607 14.817 9.15507 14.163 11.8311 11.314C14.4901 8.485 15.4291 8.437 18.1511 10.995C20.2741 12.989 20.2761 12.989 25.4661 10.796C30.2301 8.784 30.6571 8.331 30.6571 5.302C30.6571 2.431 30.9891 2 33.2011 2C35.7181 2 35.7421 2.076 35.4511 9.208ZM41.6571 6.716C41.6571 8.346 42.3381 9.365 43.6571 9.71C46.4261 10.434 46.1591 12.45 43.1101 13.839C38.2921 16.035 37.6571 15.491 37.6571 9.167C37.6571 5.958 37.9531 3.037 38.3151 2.675C39.4721 1.518 41.6571 4.159 41.6571 6.716ZM46.6571 6.5C46.6571 7.325 45.9821 8 45.1571 8C44.3321 8 43.6571 7.325 43.6571 6.5C43.6571 5.675 44.3321 5 45.1571 5C45.9821 5 46.6571 5.675 46.6571 6.5ZM62.1541 14.434C66.5901 16.288 67.9191 20.428 64.7821 22.625C63.6131 23.443 62.6571 25.176 62.6571 26.475C62.6571 29.702 61.6731 32.003 60.3001 31.988C58.3151 31.966 50.6571 24.166 50.6571 22.165C50.6571 21.112 50.3841 18.886 50.0511 17.219C49.5681 14.803 49.8211 14.091 51.3011 13.71C54.9581 12.769 58.7771 13.023 62.1541 14.434ZM47.8191 18.515C48.8511 22.373 48.3011 22.662 44.1631 20.433C40.0781 18.233 39.8051 17.277 42.9071 16.035C46.0621 14.771 46.9361 15.213 47.8191 18.515ZM42.8921 22.2C45.7881 23.96 48.4881 25.872 48.8921 26.45C49.8471 27.816 49.8471 41.158 48.8921 42.636C47.1931 45.26 37.4561 50 33.7611 50C19.7101 50 14.5211 29.309 26.5551 21.27C31.4341 18.01 36.4701 18.297 42.8921 22.2ZM67.1571 27C66.6731 27.783 66.0981 27.841 65.4311 27.174C64.8811 26.624 64.7581 25.646 65.1571 25C65.6411 24.217 66.2161 24.159 66.8831 24.826C67.4331 25.376 67.5561 26.354 67.1571 27ZM55.3431 31.174C56.6151 32.37 57.6571 33.804 57.6571 34.36C57.6571 35.601 53.6221 40 52.4831 40C52.0291 40 51.6571 37.525 51.6571 34.5C51.6571 31.475 51.9651 29 52.3431 29C52.7201 29 54.0701 29.978 55.3431 31.174ZM62.7181 39.281C65.3981 43.092 66.9091 47.859 66.2581 50.452C65.4311 53.748 62.3151 55.423 59.6571 54C58.2691 53.257 57.0661 53.246 55.7231 53.965C54.6591 54.534 52.8031 55 51.5981 55C49.6771 55 49.4841 54.614 50.0321 51.875C50.3761 50.156 50.6571 47.888 50.6571 46.835C50.6571 44.898 58.3121 37.009 60.1571 37.044C60.7071 37.054 61.8591 38.061 62.7181 39.281ZM47.9881 50.25C47.1941 54.424 47.2651 54.369 44.0321 53.292C40.1491 51.997 40.1051 50.636 43.8871 48.755C48.4401 46.49 48.6871 46.58 47.9881 50.25ZM42.5081 55.098C44.2401 55.702 45.6571 56.631 45.6571 57.164C45.6571 59.974 39.9821 67.319 38.5121 66.41C37.3981 65.722 37.3951 54 38.5081 54C38.9761 54 40.7761 54.494 42.5081 55.098ZM59.4071 57.25C59.1781 57.938 58.3901 58.5 57.6571 58.5C56.9241 58.5 56.1361 57.938 55.9071 57.25C55.6591 56.506 56.3681 56 57.6571 56C58.9461 56 59.6551 56.506 59.4071 57.25Z" fill="#0071CE"/>
</svg>
