<svg width="70" height="64" viewBox="0 0 70 64" fill="none" xmlns="http://www.w3.org/2000/svg">
<path fill-rule="evenodd" clip-rule="evenodd" d="M48.318 12.75C39.071 22.119 35.546 26.381 35.022 28.822C34.63 30.648 34.535 32.368 34.81 32.644C35.086 32.919 36.908 32.325 38.859 31.322C42.984 29.203 66.5 6.296 66.5 4.396C66.5 3.218 62.824 0 61.478 0C61.161 0 55.239 5.738 48.318 12.75ZM63.054 4.087C64.084 5.755 61.767 7.667 60.387 6.287C59.233 5.133 59.955 3 61.5 3C61.985 3 62.684 3.489 63.054 4.087ZM2.424 6.58L0 9.16V34.166V59.172L2.806 61.586L5.612 64H37.556H69.5V39V14H66C64.075 14 62.5 14.45 62.5 15C62.5 15.55 63.633 16 65.019 16H67.538L67.269 38.75L67 61.5L37.098 61.765C5.222 62.048 3.47 61.816 2.249 57.149C1.496 54.267 3.634 50.676 6.508 49.999L9 49.412L9.274 32.706L9.548 16H24.965C34.164 16 40.631 15.597 41 15C41.402 14.349 36.01 14 25.559 14H9.5V9C9.5 4.433 9.298 4 7.174 4C5.895 4 3.758 5.161 2.424 6.58ZM7.5 26.965C7.5 45.974 7.403 46.981 5.479 48.011C4.368 48.606 3.003 48.811 2.446 48.467C1.114 47.643 1.319 13.818 2.68 9.914C3.322 8.073 4.396 7 5.598 7C7.404 7 7.5 8.009 7.5 26.965ZM59.066 8.107C59.457 8.74 55.536 13.443 49.894 19.107C40.675 28.36 37.5 30.603 37.5 27.86C37.5 26.605 56.417 7 57.628 7C58.043 7 58.69 7.498 59.066 8.107ZM45.239 36.761C36.033 45.979 28.5 53.865 28.5 54.284C28.5 54.703 36.487 54.923 46.25 54.773L64 54.5L64.274 37.25C64.488 23.727 64.27 20 63.263 20C62.556 20 54.445 27.542 45.239 36.761ZM62.28 39.08L62 52.5L47.75 52.777C39.912 52.93 33.5 52.711 33.5 52.29C33.5 50.744 60.964 24.064 61.749 24.849C62.195 25.295 62.434 31.699 62.28 39.08ZM49.033 41.296L43.067 47.5L49.442 47.802C53.865 48.011 56.072 47.705 56.646 46.802C57.743 45.078 57.178 35.713 55.956 35.365C55.43 35.215 52.315 37.884 49.033 41.296ZM54.993 43.086C54.988 45.076 54.417 45.555 51.743 45.813C47.929 46.182 47.715 45.465 50.692 42.295C53.327 39.491 55.002 39.799 54.993 43.086Z" fill="#0071CE"/>
</svg>
