<svg width="66" height="70" viewBox="0 0 66 70" fill="none" xmlns="http://www.w3.org/2000/svg">
<path fill-rule="evenodd" clip-rule="evenodd" d="M31.815 2.75C31.283 4.977 31.914 8 32.911 8C33.332 8 33.735 6.425 33.808 4.5C33.944 0.881999 32.553 -0.339001 31.815 2.75ZM16.033 6.139C16.015 7.041 16.885 8.841 17.967 10.139C19.509 11.99 19.941 12.146 19.967 10.861C19.985 9.959 19.115 8.159 18.033 6.861C16.491 5.01 16.059 4.854 16.033 6.139ZM46.526 7.95C44.797 11.293 44.668 12 45.784 12C46.554 12 50 6.765 50 5.596C50 3.916 47.863 5.364 46.526 7.95ZM26.127 14.498C10.988 19.22 7.322 38.475 19.378 49.946C22.623 53.034 23 53.927 23 58.529C23 63.306 23.276 63.887 26.941 66.833C31.906 70.823 33.732 70.805 38.318 66.725C41.652 63.759 42 62.967 42 58.343C42 53.712 42.316 52.996 45.398 50.646C52.098 45.535 55.042 33.795 51.648 25.718C49.693 21.067 44.4 16.324 39.178 14.545C33.776 12.704 31.898 12.698 26.127 14.498ZM41.956 18.095C46.891 20.869 50.204 26.065 50.766 31.914C51.417 38.689 49.509 43.546 44.2 48.633C39.692 52.952 39.564 53 32.534 53H25.425L20.843 48.25C13.883 41.036 12.33 34.214 15.89 26.5C20.682 16.118 31.964 12.48 41.956 18.095ZM4 17.974C4 18.51 5.35 19.647 7 20.5C10.479 22.299 11.057 20.854 7.777 18.557C5.225 16.769 4 16.58 4 17.974ZM57.25 18.674C53.955 20.973 54.504 22.308 58 20.5C59.65 19.647 61 18.51 61 17.974C61 16.626 59.89 16.833 57.25 18.674ZM28.433 21.25C27.49 24.27 26.123 24.997 23.365 23.949C21.534 23.252 20.749 23.521 19.531 25.259C17.583 28.04 17.569 30.897 19.5 31.638C21.496 32.404 21.4 34.901 19.283 37.24C17.722 38.964 17.705 39.381 19.091 41.818C20.326 43.991 21.221 44.441 23.801 44.187C26.403 43.931 27.199 44.343 28.153 46.437C29.07 48.448 30.045 49 32.685 49C35.397 49 36.243 48.491 37.048 46.373C37.919 44.083 38.473 43.815 41.361 44.284C44.246 44.752 44.902 44.435 46.441 41.831C48.157 38.925 48.148 38.786 46.103 36.882C43.498 34.455 43.499 34.163 46.114 31.379L48.228 29.129L46.074 26.104C44.246 23.537 43.56 23.217 41.538 23.986C39.045 24.933 37.907 24.174 36.687 20.75C36.255 19.54 34.993 19 32.599 19C29.881 19 28.983 19.485 28.433 21.25ZM34.967 23.414C35.985 26.091 38.999 27.453 41.882 26.538C44.315 25.765 45.762 28.994 43.541 30.237C41.478 31.391 41.557 36.653 43.654 37.827C46.35 39.335 44.552 42.355 41.425 41.571C39.402 41.063 38.277 41.562 36.033 43.964C32.807 47.418 31.227 47.771 30.281 45.25C29.254 42.514 26.741 41.107 23.894 41.673C20.833 42.283 19.295 39.83 21.559 37.951C23.468 36.366 23.403 31.325 21.459 30.237C19.018 28.871 20.75 25.721 23.556 26.425C26.724 27.22 28.992 26.151 30.052 23.364C31.214 20.306 33.796 20.333 34.967 23.414ZM28.342 31.601C25.684 35.658 29.293 39.896 34.33 38.632C37.799 37.761 38.932 33.687 36.464 30.96C33.96 28.194 30.39 28.476 28.342 31.601ZM34.989 32.487C36.609 34.439 35.567 37 33.154 37C30.267 37 28.435 34.386 30 32.5C31.582 30.594 33.414 30.589 34.989 32.487ZM0 34C0 34.55 1.35 35 3 35C4.65 35 6 34.55 6 34C6 33.45 4.65 33 3 33C1.35 33 0 33.45 0 34ZM59 34C59 34.55 60.575 35 62.5 35C64.425 35 66 34.55 66 34C66 33.45 64.425 33 62.5 33C60.575 33 59 33.45 59 34ZM5.573 48.521C4.513 49.323 3.892 50.226 4.194 50.527C4.924 51.258 10 48.908 10 47.839C10 46.549 7.716 46.901 5.573 48.521ZM56.861 49.033C59.428 51.172 61 51.553 61 50.035C61 48.897 57.699 46.986 55.816 47.033C55.063 47.052 55.511 47.908 56.861 49.033ZM40 59.544V64.088L32.75 63.794L25.5 63.5L25.193 59.25L24.885 55H32.443H40V59.544ZM34 67C34 67.55 33.325 68 32.5 68C31.675 68 31 67.55 31 67C31 66.45 31.675 66 32.5 66C33.325 66 34 66.45 34 67Z" fill="#0071CE"/>
</svg>
